<svg width="55" height="341" viewBox="0 0 55 341" fill="none" xmlns="http://www.w3.org/2000/svg">
<circle cx="5" cy="259.163" r="5" fill="#3290E7" fill-opacity="0.3"/>
<circle cx="5" cy="284.913" r="5" fill="#3290E7" fill-opacity="0.3"/>
<circle cx="5" cy="309.663" r="5" fill="#3290E7" fill-opacity="0.3"/>
<circle cx="26.875" cy="259.163" r="5" fill="#3290E7" fill-opacity="0.3"/>
<circle cx="26.875" cy="284.913" r="5" fill="#3290E7" fill-opacity="0.3"/>
<circle cx="26.875" cy="309.663" r="5" fill="#3290E7" fill-opacity="0.3"/>
<circle cx="49.75" cy="259.163" r="5" fill="#3290E7" fill-opacity="0.3"/>
<circle cx="49.75" cy="284.913" r="5" fill="#3290E7" fill-opacity="0.3"/>
<circle cx="49.75" cy="309.663" r="5" fill="#3290E7" fill-opacity="0.3"/>
<circle cx="5" cy="335.913" r="5" fill="#3290E7" fill-opacity="0.3"/>
<circle cx="26.875" cy="335.913" r="5" fill="#3290E7" fill-opacity="0.3"/>
<circle cx="49.75" cy="335.913" r="5" fill="#3290E7" fill-opacity="0.3"/>
<circle cx="5" cy="183.62" r="5" fill="#3290E7" fill-opacity="0.3"/>
<circle cx="5" cy="209.37" r="5" fill="#3290E7" fill-opacity="0.3"/>
<circle cx="5" cy="234.12" r="5" fill="#3290E7" fill-opacity="0.3"/>
<circle cx="26.875" cy="183.62" r="5" fill="#3290E7" fill-opacity="0.3"/>
<circle cx="26.875" cy="209.37" r="5" fill="#3290E7" fill-opacity="0.3"/>
<circle cx="26.875" cy="234.12" r="5" fill="#3290E7" fill-opacity="0.3"/>
<circle cx="49.75" cy="183.62" r="5" fill="#3290E7" fill-opacity="0.3"/>
<circle cx="49.75" cy="209.37" r="5" fill="#3290E7" fill-opacity="0.3"/>
<circle cx="49.75" cy="234.12" r="5" fill="#3290E7" fill-opacity="0.3"/>
<circle cx="5" cy="80.8367" r="5" fill="#3290E7" fill-opacity="0.3"/>
<circle cx="5" cy="106.587" r="5" fill="#3290E7" fill-opacity="0.3"/>
<circle cx="5" cy="131.337" r="5" fill="#3290E7" fill-opacity="0.3"/>
<circle cx="26.875" cy="80.8367" r="5" fill="#3290E7" fill-opacity="0.3"/>
<circle cx="26.875" cy="106.587" r="5" fill="#3290E7" fill-opacity="0.3"/>
<circle cx="26.875" cy="131.337" r="5" fill="#3290E7" fill-opacity="0.3"/>
<circle cx="49.75" cy="80.8367" r="5" fill="#3290E7" fill-opacity="0.3"/>
<circle cx="49.75" cy="106.587" r="5" fill="#3290E7" fill-opacity="0.3"/>
<circle cx="49.75" cy="131.337" r="5" fill="#3290E7" fill-opacity="0.3"/>
<circle cx="5" cy="157.587" r="5" fill="#3290E7" fill-opacity="0.3"/>
<circle cx="26.875" cy="157.587" r="5" fill="#3290E7" fill-opacity="0.3"/>
<circle cx="49.75" cy="157.587" r="5" fill="#3290E7" fill-opacity="0.3"/>
<circle cx="5" cy="5.29333" r="5" fill="#3290E7" fill-opacity="0.3"/>
<circle cx="5" cy="31.0433" r="5" fill="#3290E7" fill-opacity="0.3"/>
<circle cx="5" cy="55.7933" r="5" fill="#3290E7" fill-opacity="0.3"/>
<circle cx="26.875" cy="5.29333" r="5" fill="#3290E7" fill-opacity="0.3"/>
<circle cx="26.875" cy="31.0433" r="5" fill="#3290E7" fill-opacity="0.3"/>
<circle cx="26.875" cy="55.7933" r="5" fill="#3290E7" fill-opacity="0.3"/>
<circle cx="49.75" cy="5.29333" r="5" fill="#3290E7" fill-opacity="0.3"/>
<circle cx="49.75" cy="31.0433" r="5" fill="#3290E7" fill-opacity="0.3"/>
<circle cx="49.75" cy="55.7933" r="5" fill="#3290E7" fill-opacity="0.3"/>
</svg>
