<svg width="56" height="213" viewBox="0 0 56 213" fill="none" xmlns="http://www.w3.org/2000/svg">
<circle cx="5.30762" cy="5" r="5" fill="#E7E7E7"/>
<circle cx="5.30762" cy="30.75" r="5" fill="#E7E7E7"/>
<circle cx="5.30762" cy="55.5" r="5" fill="#E7E7E7"/>
<circle cx="27.1826" cy="5" r="5" fill="#E7E7E7"/>
<circle cx="27.1826" cy="30.75" r="5" fill="#E7E7E7"/>
<circle cx="27.1826" cy="55.5" r="5" fill="#E7E7E7"/>
<circle cx="50.0576" cy="5" r="5" fill="#E7E7E7"/>
<circle cx="50.0576" cy="30.75" r="5" fill="#E7E7E7"/>
<circle cx="50.0576" cy="55.5" r="5" fill="#E7E7E7"/>
<circle cx="5.30762" cy="157.461" r="5" fill="#E7E7E7"/>
<circle cx="5.30762" cy="183.211" r="5" fill="#E7E7E7"/>
<circle cx="5.30762" cy="207.961" r="5" fill="#E7E7E7"/>
<circle cx="27.1826" cy="157.461" r="5" fill="#E7E7E7"/>
<circle cx="27.1826" cy="183.211" r="5" fill="#E7E7E7"/>
<circle cx="27.1826" cy="207.961" r="5" fill="#E7E7E7"/>
<circle cx="50.0576" cy="157.461" r="5" fill="#E7E7E7"/>
<circle cx="50.0576" cy="183.211" r="5" fill="#E7E7E7"/>
<circle cx="50.0576" cy="207.961" r="5" fill="#E7E7E7"/>
<circle cx="5.30762" cy="81.75" r="5" fill="#E7E7E7"/>
<circle cx="5.30762" cy="107.5" r="5" fill="#E7E7E7"/>
<circle cx="5.30762" cy="132.25" r="5" fill="#E7E7E7"/>
<circle cx="27.1826" cy="81.75" r="5" fill="#E7E7E7"/>
<circle cx="27.1826" cy="107.5" r="5" fill="#E7E7E7"/>
<circle cx="27.1826" cy="132.25" r="5" fill="#E7E7E7"/>
<circle cx="50.0576" cy="81.75" r="5" fill="#E7E7E7"/>
<circle cx="50.0576" cy="107.5" r="5" fill="#E7E7E7"/>
<circle cx="50.0576" cy="132.25" r="5" fill="#E7E7E7"/>
</svg>
