<svg width="55" height="342" viewBox="0 0 55 342" fill="none" xmlns="http://www.w3.org/2000/svg">
<circle cx="5.09277" cy="259.56" r="5" fill="#3290E7" fill-opacity="0.3"/>
<circle cx="5.09277" cy="285.31" r="5" fill="#3290E7" fill-opacity="0.3"/>
<circle cx="5.09277" cy="310.06" r="5" fill="#3290E7" fill-opacity="0.3"/>
<circle cx="26.9678" cy="259.56" r="5" fill="#3290E7" fill-opacity="0.3"/>
<circle cx="26.9678" cy="285.31" r="5" fill="#3290E7" fill-opacity="0.3"/>
<circle cx="26.9678" cy="310.06" r="5" fill="#3290E7" fill-opacity="0.3"/>
<circle cx="49.8428" cy="259.56" r="5" fill="#3290E7" fill-opacity="0.3"/>
<circle cx="49.8428" cy="285.31" r="5" fill="#3290E7" fill-opacity="0.3"/>
<circle cx="49.8428" cy="310.06" r="5" fill="#3290E7" fill-opacity="0.3"/>
<circle cx="5.09277" cy="336.31" r="5" fill="#3290E7" fill-opacity="0.3"/>
<circle cx="26.9678" cy="336.31" r="5" fill="#3290E7" fill-opacity="0.3"/>
<circle cx="49.8428" cy="336.31" r="5" fill="#3290E7" fill-opacity="0.3"/>
<circle cx="5.09277" cy="184.017" r="5" fill="#3290E7" fill-opacity="0.3"/>
<circle cx="5.09277" cy="209.767" r="5" fill="#3290E7" fill-opacity="0.3"/>
<circle cx="5.09277" cy="234.517" r="5" fill="#3290E7" fill-opacity="0.3"/>
<circle cx="26.9678" cy="184.017" r="5" fill="#3290E7" fill-opacity="0.3"/>
<circle cx="26.9678" cy="209.767" r="5" fill="#3290E7" fill-opacity="0.3"/>
<circle cx="26.9678" cy="234.517" r="5" fill="#3290E7" fill-opacity="0.3"/>
<circle cx="49.8428" cy="184.017" r="5" fill="#3290E7" fill-opacity="0.3"/>
<circle cx="49.8428" cy="209.767" r="5" fill="#3290E7" fill-opacity="0.3"/>
<circle cx="49.8428" cy="234.517" r="5" fill="#3290E7" fill-opacity="0.3"/>
<circle cx="5.09277" cy="81.2334" r="5" fill="#3290E7" fill-opacity="0.3"/>
<circle cx="5.09277" cy="106.983" r="5" fill="#3290E7" fill-opacity="0.3"/>
<circle cx="5.09277" cy="131.733" r="5" fill="#3290E7" fill-opacity="0.3"/>
<circle cx="26.9678" cy="81.2334" r="5" fill="#3290E7" fill-opacity="0.3"/>
<circle cx="26.9678" cy="106.983" r="5" fill="#3290E7" fill-opacity="0.3"/>
<circle cx="26.9678" cy="131.733" r="5" fill="#3290E7" fill-opacity="0.3"/>
<circle cx="49.8428" cy="81.2334" r="5" fill="#3290E7" fill-opacity="0.3"/>
<circle cx="49.8428" cy="106.983" r="5" fill="#3290E7" fill-opacity="0.3"/>
<circle cx="49.8428" cy="131.733" r="5" fill="#3290E7" fill-opacity="0.3"/>
<circle cx="5.09277" cy="157.983" r="5" fill="#3290E7" fill-opacity="0.3"/>
<circle cx="26.9678" cy="157.983" r="5" fill="#3290E7" fill-opacity="0.3"/>
<circle cx="49.8428" cy="157.983" r="5" fill="#3290E7" fill-opacity="0.3"/>
<circle cx="5.09277" cy="5.69006" r="5" fill="#3290E7" fill-opacity="0.3"/>
<circle cx="5.09277" cy="31.4401" r="5" fill="#3290E7" fill-opacity="0.3"/>
<circle cx="5.09277" cy="56.1901" r="5" fill="#3290E7" fill-opacity="0.3"/>
<circle cx="26.9678" cy="5.69006" r="5" fill="#3290E7" fill-opacity="0.3"/>
<circle cx="26.9678" cy="31.4401" r="5" fill="#3290E7" fill-opacity="0.3"/>
<circle cx="26.9678" cy="56.1901" r="5" fill="#3290E7" fill-opacity="0.3"/>
<circle cx="49.8428" cy="5.69006" r="5" fill="#3290E7" fill-opacity="0.3"/>
<circle cx="49.8428" cy="31.4401" r="5" fill="#3290E7" fill-opacity="0.3"/>
<circle cx="49.8428" cy="56.1901" r="5" fill="#3290E7" fill-opacity="0.3"/>
</svg>
