<svg width="56" height="290" viewBox="0 0 56 290" fill="none" xmlns="http://www.w3.org/2000/svg">
<circle cx="5.30762" cy="5.25" r="5" fill="#EFEFEF"/>
<circle cx="5.30762" cy="31" r="5" fill="#EFEFEF"/>
<circle cx="5.30762" cy="55.75" r="5" fill="#EFEFEF"/>
<circle cx="27.1826" cy="5.25" r="5" fill="#EFEFEF"/>
<circle cx="27.1826" cy="31" r="5" fill="#EFEFEF"/>
<circle cx="27.1826" cy="55.75" r="5" fill="#EFEFEF"/>
<circle cx="50.0576" cy="5.25" r="5" fill="#EFEFEF"/>
<circle cx="50.0576" cy="31" r="5" fill="#EFEFEF"/>
<circle cx="50.0576" cy="55.75" r="5" fill="#EFEFEF"/>
<circle cx="5.30762" cy="157.711" r="5" fill="#EFEFEF"/>
<circle cx="5.30762" cy="183.461" r="5" fill="#EFEFEF"/>
<circle cx="5.30762" cy="208.211" r="5" fill="#EFEFEF"/>
<circle cx="27.1826" cy="157.711" r="5" fill="#EFEFEF"/>
<circle cx="27.1826" cy="183.461" r="5" fill="#EFEFEF"/>
<circle cx="27.1826" cy="208.211" r="5" fill="#EFEFEF"/>
<circle cx="50.0576" cy="157.711" r="5" fill="#EFEFEF"/>
<circle cx="50.0576" cy="183.461" r="5" fill="#EFEFEF"/>
<circle cx="50.0576" cy="208.211" r="5" fill="#EFEFEF"/>
<circle cx="5.30762" cy="82" r="5" fill="#EFEFEF"/>
<circle cx="5.30762" cy="107.75" r="5" fill="#EFEFEF"/>
<circle cx="5.30762" cy="132.5" r="5" fill="#EFEFEF"/>
<circle cx="27.1826" cy="82" r="5" fill="#EFEFEF"/>
<circle cx="27.1826" cy="107.75" r="5" fill="#EFEFEF"/>
<circle cx="27.1826" cy="132.5" r="5" fill="#EFEFEF"/>
<circle cx="50.0576" cy="82" r="5" fill="#EFEFEF"/>
<circle cx="50.0576" cy="107.75" r="5" fill="#EFEFEF"/>
<circle cx="50.0576" cy="132.5" r="5" fill="#EFEFEF"/>
<circle cx="5.30762" cy="234.461" r="5" fill="#EFEFEF"/>
<circle cx="5.30762" cy="260.211" r="5" fill="#EFEFEF"/>
<circle cx="5.30762" cy="284.961" r="5" fill="#EFEFEF"/>
<circle cx="27.1826" cy="234.461" r="5" fill="#EFEFEF"/>
<circle cx="27.1826" cy="260.211" r="5" fill="#EFEFEF"/>
<circle cx="27.1826" cy="284.961" r="5" fill="#EFEFEF"/>
<circle cx="50.0576" cy="234.461" r="5" fill="#EFEFEF"/>
<circle cx="50.0576" cy="260.211" r="5" fill="#EFEFEF"/>
<circle cx="50.0576" cy="284.961" r="5" fill="#EFEFEF"/>
</svg>
