<svg width="21" height="14" viewBox="0 0 21 14" fill="none" xmlns="http://www.w3.org/2000/svg">
<g clip-path="url(#clip0)">
<path d="M1.125 14C0.779167 14 0.5 13.7069 0.5 13.3438V1.21625C0.5 0.853125 0.716667 0.739375 0.9875 0.9625L10.0083 8.46125C10.2792 8.68437 10.7167 8.68437 10.9875 8.46125L20.0125 0.9625C20.2792 0.739375 20.5 0.853125 20.5 1.21625V13.3438C20.5 13.7069 20.2167 14 19.875 14H1.125ZM19.2042 0C19.55 0 19.6083 0.18375 19.3417 0.406875L10.825 7.48125C10.6458 7.63 10.35 7.63 10.1708 7.48125L1.65833 0.406875C1.39167 0.18375 1.45 0 1.79583 0H19.2042Z" fill="white"/>
</g>
<defs>
<clipPath id="clip0">
<rect width="20" height="14" fill="white" transform="translate(0.5)"/>
</clipPath>
</defs>
</svg>
