<svg width="18" height="18" viewBox="0 0 18 18" fill="none" xmlns="http://www.w3.org/2000/svg">
<path d="M16.25 0.472168H1.21094C0.546875 0.472168 0 1.05811 0 1.76123V16.7222C0 17.4253 0.546875 17.9722 1.21094 17.9722H16.25C16.9141 17.9722 17.5 17.4253 17.5 16.7222V1.76123C17.5 1.05811 16.9141 0.472168 16.25 0.472168ZM5.27344 15.4722H2.69531V7.15186H5.27344V15.4722ZM3.98438 5.97998C3.125 5.97998 2.46094 5.31592 2.46094 4.49561C2.46094 3.67529 3.125 2.97217 3.98438 2.97217C4.80469 2.97217 5.46875 3.67529 5.46875 4.49561C5.46875 5.31592 4.80469 5.97998 3.98438 5.97998ZM15 15.4722H12.3828V11.4097C12.3828 10.4722 12.3828 9.22217 11.0547 9.22217C9.6875 9.22217 9.49219 10.2769 9.49219 11.3706V15.4722H6.91406V7.15186H9.375V8.28467H9.41406C9.76562 7.62061 10.625 6.91748 11.875 6.91748C14.4922 6.91748 15 8.67529 15 10.9019V15.4722Z" fill="white"/>
</svg>
