<svg width="205" height="60" viewBox="0 0 205 60" fill="none" xmlns="http://www.w3.org/2000/svg">
<path d="M20.822 52.2222C20.594 52.2222 20.408 52.1562 20.264 52.0242C20.132 51.8922 20.066 51.7182 20.066 51.5022V40.2522C20.066 40.0362 20.132 39.8622 20.264 39.7302C20.408 39.5982 20.594 39.5322 20.822 39.5322H24.332C26.36 39.5322 27.926 40.0842 29.03 41.1882C30.146 42.2802 30.704 43.8402 30.704 45.8682C30.704 47.8962 30.146 49.4622 29.03 50.5662C27.914 51.6702 26.348 52.2222 24.332 52.2222H20.822ZM24.242 50.9622C27.53 50.9622 29.174 49.2642 29.174 45.8682C29.174 42.4842 27.53 40.7922 24.242 40.7922H21.542V50.9622H24.242ZM36.9546 52.3122C36.7386 52.3122 36.5586 52.2522 36.4146 52.1322C36.2826 52.0002 36.2166 51.8202 36.2166 51.5922V43.9962C36.2166 43.7682 36.2826 43.5942 36.4146 43.4742C36.5586 43.3422 36.7386 43.2762 36.9546 43.2762C37.1706 43.2762 37.3446 43.3422 37.4766 43.4742C37.6086 43.5942 37.6746 43.7682 37.6746 43.9962V51.5922C37.6746 51.8322 37.6086 52.0122 37.4766 52.1322C37.3446 52.2522 37.1706 52.3122 36.9546 52.3122ZM36.9546 41.3862C36.6666 41.3862 36.4326 41.3022 36.2526 41.1342C36.0726 40.9662 35.9826 40.7442 35.9826 40.4682C35.9826 40.2042 36.0726 39.9882 36.2526 39.8202C36.4326 39.6522 36.6666 39.5682 36.9546 39.5682C37.2426 39.5682 37.4766 39.6522 37.6566 39.8202C37.8366 39.9882 37.9266 40.2042 37.9266 40.4682C37.9266 40.7442 37.8366 40.9662 37.6566 41.1342C37.4766 41.3022 37.2426 41.3862 36.9546 41.3862ZM36.9366 55.5882C36.6606 55.5882 36.4386 55.5042 36.2706 55.3362C36.1026 55.1802 36.0186 54.9702 36.0186 54.7062C36.0186 54.4422 36.1026 54.2262 36.2706 54.0582C36.4386 53.9022 36.6606 53.8242 36.9366 53.8242C37.2006 53.8242 37.4166 53.9022 37.5846 54.0582C37.7646 54.2262 37.8546 54.4422 37.8546 54.7062C37.8546 54.9702 37.7706 55.1802 37.6026 55.3362C37.4346 55.5042 37.2126 55.5882 36.9366 55.5882ZM47.0782 52.3482C46.2622 52.3482 45.5362 52.1622 44.9002 51.7902C44.2762 51.4182 43.7902 50.8902 43.4422 50.2062C43.1062 49.5222 42.9382 48.7302 42.9382 47.8302C42.9382 46.9302 43.1122 46.1322 43.4602 45.4362C43.8202 44.7402 44.3182 44.2002 44.9542 43.8162C45.5902 43.4322 46.3222 43.2402 47.1502 43.2402C47.6062 43.2402 48.0562 43.3062 48.5002 43.4382C48.9562 43.5582 49.3522 43.7382 49.6882 43.9782C49.9042 44.1222 50.0542 44.2662 50.1382 44.4102C50.2342 44.5422 50.2822 44.6922 50.2822 44.8602C50.2822 45.0282 50.2342 45.1662 50.1382 45.2742C50.0542 45.3822 49.9402 45.4362 49.7962 45.4362C49.7122 45.4362 49.6222 45.4122 49.5262 45.3642C49.4302 45.3162 49.3462 45.2682 49.2742 45.2202C49.2142 45.1722 49.1722 45.1422 49.1482 45.1302C48.8362 44.9262 48.5362 44.7642 48.2482 44.6442C47.9722 44.5242 47.6302 44.4642 47.2222 44.4642C46.3462 44.4642 45.6622 44.7642 45.1702 45.3642C44.6902 45.9522 44.4502 46.7742 44.4502 47.8302C44.4502 48.8862 44.6902 49.7022 45.1702 50.2782C45.6622 50.8542 46.3462 51.1422 47.2222 51.1422C47.6302 51.1422 47.9782 51.0822 48.2662 50.9622C48.5662 50.8422 48.8662 50.6802 49.1662 50.4762C49.2982 50.3922 49.4242 50.3202 49.5442 50.2602C49.6642 50.2002 49.7662 50.1702 49.8502 50.1702C49.9822 50.1702 50.0902 50.2242 50.1742 50.3322C50.2702 50.4402 50.3182 50.5782 50.3182 50.7462C50.3182 50.9022 50.2762 51.0462 50.1922 51.1782C50.1082 51.2982 49.9522 51.4362 49.7242 51.5922C49.3882 51.8202 48.9802 52.0062 48.5002 52.1502C48.0322 52.2822 47.5582 52.3482 47.0782 52.3482ZM59.5615 43.2402C60.5935 43.2402 61.3735 43.5342 61.9015 44.1222C62.4295 44.6982 62.6935 45.5622 62.6935 46.7142V51.5922C62.6935 51.8202 62.6275 52.0002 62.4955 52.1322C62.3635 52.2522 62.1895 52.3122 61.9735 52.3122C61.7455 52.3122 61.5655 52.2522 61.4335 52.1322C61.3015 52.0002 61.2355 51.8202 61.2355 51.5922V46.7502C61.2355 45.9702 61.0735 45.3942 60.7495 45.0222C60.4375 44.6502 59.9335 44.4642 59.2375 44.4642C58.4335 44.4642 57.7915 44.7102 57.3115 45.2022C56.8315 45.6942 56.5915 46.3602 56.5915 47.2002V51.5922C56.5915 51.8202 56.5255 52.0002 56.3935 52.1322C56.2735 52.2522 56.0995 52.3122 55.8715 52.3122C55.6435 52.3122 55.4635 52.2522 55.3315 52.1322C55.1995 52.0002 55.1335 51.8202 55.1335 51.5922V40.1442C55.1335 39.9402 55.1995 39.7722 55.3315 39.6402C55.4755 39.5082 55.6555 39.4422 55.8715 39.4422C56.0995 39.4422 56.2735 39.5082 56.3935 39.6402C56.5255 39.7602 56.5915 39.9282 56.5915 40.1442V44.8602C56.8795 44.3322 57.2815 43.9302 57.7975 43.6542C58.3135 43.3782 58.9015 43.2402 59.5615 43.2402ZM82.4426 43.7262C82.5746 43.4382 82.7846 43.2942 83.0726 43.2942C83.2526 43.2942 83.4146 43.3542 83.5586 43.4742C83.7026 43.5942 83.7746 43.7442 83.7746 43.9242C83.7746 44.0322 83.7506 44.1282 83.7026 44.2122L80.1926 51.7722C80.1206 51.9282 80.0126 52.0542 79.8686 52.1502C79.7246 52.2342 79.5686 52.2762 79.4006 52.2762C79.2446 52.2762 79.0946 52.2342 78.9506 52.1502C78.8066 52.0542 78.6926 51.9282 78.6086 51.7722L75.1166 44.2122C75.0686 44.1282 75.0446 44.0382 75.0446 43.9422C75.0446 43.7622 75.1226 43.6062 75.2786 43.4742C75.4466 43.3422 75.6266 43.2762 75.8186 43.2762C75.9386 43.2762 76.0526 43.3122 76.1606 43.3842C76.2806 43.4562 76.3706 43.5582 76.4306 43.6902L79.4366 50.4402L82.4426 43.7262ZM95.0907 43.2762C95.3187 43.2762 95.4927 43.3422 95.6127 43.4742C95.7447 43.6062 95.8107 43.7802 95.8107 43.9962V51.6102C95.8107 51.8142 95.7447 51.9822 95.6127 52.1142C95.4927 52.2462 95.3187 52.3122 95.0907 52.3122C94.8747 52.3122 94.7007 52.2522 94.5687 52.1322C94.4487 52.0002 94.3887 51.8322 94.3887 51.6282V50.7282C94.1127 51.2562 93.7227 51.6582 93.2187 51.9342C92.7267 52.2102 92.1687 52.3482 91.5447 52.3482C90.5007 52.3482 89.7147 52.0602 89.1867 51.4842C88.6587 50.8962 88.3947 50.0322 88.3947 48.8922V43.9962C88.3947 43.7802 88.4607 43.6062 88.5927 43.4742C88.7247 43.3422 88.9047 43.2762 89.1327 43.2762C89.3607 43.2762 89.5347 43.3422 89.6547 43.4742C89.7867 43.6062 89.8527 43.7802 89.8527 43.9962V48.8562C89.8527 49.6362 90.0087 50.2122 90.3207 50.5842C90.6327 50.9442 91.1247 51.1242 91.7967 51.1242C92.5647 51.1242 93.1827 50.8782 93.6507 50.3862C94.1187 49.8822 94.3527 49.2222 94.3527 48.4062V43.9962C94.3527 43.7802 94.4187 43.6062 94.5507 43.4742C94.6827 43.3422 94.8627 43.2762 95.0907 43.2762ZM92.1207 55.5882C91.8447 55.5882 91.6227 55.5042 91.4547 55.3362C91.2867 55.1802 91.2027 54.9702 91.2027 54.7062C91.2027 54.4422 91.2867 54.2262 91.4547 54.0582C91.6227 53.9022 91.8447 53.8242 92.1207 53.8242C92.3847 53.8242 92.6007 53.9022 92.7687 54.0582C92.9487 54.2262 93.0387 54.4422 93.0387 54.7062C93.0387 54.9702 92.9547 55.1802 92.7867 55.3362C92.6187 55.5042 92.3967 55.5882 92.1207 55.5882ZM116.283 51.0702C116.475 51.2502 116.571 51.4422 116.571 51.6462C116.571 51.8262 116.505 51.9822 116.373 52.1142C116.253 52.2462 116.103 52.3122 115.923 52.3122C115.767 52.3122 115.605 52.2402 115.437 52.0962L110.739 48.0462V51.5922C110.739 51.8202 110.667 52.0002 110.523 52.1322C110.391 52.2522 110.223 52.3122 110.019 52.3122C109.803 52.3122 109.623 52.2522 109.479 52.1322C109.347 52.0002 109.281 51.8202 109.281 51.5922V40.1622C109.281 39.9342 109.347 39.7602 109.479 39.6402C109.623 39.5082 109.803 39.4422 110.019 39.4422C110.223 39.4422 110.391 39.5082 110.523 39.6402C110.667 39.7602 110.739 39.9342 110.739 40.1622V47.4702L115.041 43.5282C115.185 43.3842 115.347 43.3122 115.527 43.3122C115.707 43.3122 115.863 43.3782 115.995 43.5102C116.127 43.6422 116.193 43.7982 116.193 43.9782C116.193 44.1822 116.109 44.3622 115.941 44.5182L112.395 47.6862L116.283 51.0702ZM127.969 50.1882C128.101 50.1882 128.215 50.2422 128.311 50.3502C128.407 50.4582 128.455 50.5962 128.455 50.7642C128.455 51.0642 128.245 51.3402 127.825 51.5922C127.393 51.8442 126.937 52.0362 126.457 52.1682C125.977 52.2882 125.509 52.3482 125.053 52.3482C123.697 52.3482 122.623 51.9462 121.831 51.1422C121.051 50.3382 120.661 49.2282 120.661 47.8122C120.661 46.9122 120.835 46.1202 121.183 45.4362C121.531 44.7402 122.017 44.2002 122.641 43.8162C123.277 43.4322 123.997 43.2402 124.801 43.2402C125.941 43.2402 126.847 43.6122 127.519 44.3562C128.191 45.1002 128.527 46.1082 128.527 47.3802C128.527 47.6202 128.479 47.7942 128.383 47.9022C128.287 48.0102 128.131 48.0642 127.915 48.0642H122.119C122.227 50.1282 123.205 51.1602 125.053 51.1602C125.521 51.1602 125.923 51.1002 126.259 50.9802C126.595 50.8482 126.955 50.6742 127.339 50.4582C127.651 50.2782 127.861 50.1882 127.969 50.1882ZM124.819 44.3742C124.051 44.3742 123.433 44.6142 122.965 45.0942C122.509 45.5742 122.239 46.2522 122.155 47.1282H127.249C127.225 46.2402 127.003 45.5622 126.583 45.0942C126.163 44.6142 125.575 44.3742 124.819 44.3742ZM127.069 40.4502C127.009 40.4982 126.931 40.5222 126.835 40.5222C126.727 40.5222 126.631 40.4862 126.547 40.4142C126.475 40.3302 126.439 40.2342 126.439 40.1262C126.439 40.0302 126.469 39.9462 126.529 39.8742L127.897 38.1282C128.077 37.9002 128.275 37.7862 128.491 37.7862C128.671 37.7862 128.821 37.8522 128.941 37.9842C129.073 38.1042 129.139 38.2482 129.139 38.4162C129.139 38.6682 129.013 38.8842 128.761 39.0642L127.069 40.4502ZM123.253 42.2142C123.133 42.3222 123.007 42.3762 122.875 42.3762C122.731 42.3762 122.605 42.3282 122.497 42.2322C122.389 42.1242 122.335 41.9982 122.335 41.8542C122.335 41.6982 122.413 41.5482 122.569 41.4042L124.135 39.8382C124.339 39.6462 124.561 39.5502 124.801 39.5502C125.017 39.5502 125.239 39.6462 125.467 39.8382L127.033 41.4042C127.189 41.5482 127.267 41.6982 127.267 41.8542C127.267 41.9982 127.213 42.1242 127.105 42.2322C126.997 42.3282 126.877 42.3762 126.745 42.3762C126.601 42.3762 126.475 42.3222 126.367 42.2142L124.801 40.5582L123.253 42.2142ZM145.486 51.1602C145.906 51.1962 146.116 51.3882 146.116 51.7362C146.116 51.9402 146.038 52.0962 145.882 52.2042C145.738 52.3002 145.516 52.3362 145.216 52.3122L144.73 52.2762C143.77 52.2042 143.062 51.9162 142.606 51.4122C142.15 50.9082 141.922 50.1462 141.922 49.1262V44.6082H140.716C140.512 44.6082 140.35 44.5602 140.23 44.4642C140.122 44.3562 140.068 44.2182 140.068 44.0502C140.068 43.8702 140.122 43.7262 140.23 43.6182C140.35 43.5102 140.512 43.4562 140.716 43.4562H141.922V41.4222C141.922 41.1942 141.988 41.0202 142.12 40.9002C142.252 40.7682 142.432 40.7022 142.66 40.7022C142.876 40.7022 143.05 40.7682 143.182 40.9002C143.314 41.0202 143.38 41.1942 143.38 41.4222V43.4562H145.378C145.57 43.4562 145.72 43.5102 145.828 43.6182C145.948 43.7262 146.008 43.8702 146.008 44.0502C146.008 44.2182 145.948 44.3562 145.828 44.4642C145.72 44.5602 145.57 44.6082 145.378 44.6082H143.38V49.1982C143.38 49.8582 143.512 50.3382 143.776 50.6382C144.052 50.9262 144.46 51.0882 145 51.1242L145.486 51.1602ZM154.249 52.3482C153.421 52.3482 152.689 52.1622 152.053 51.7902C151.429 51.4182 150.943 50.8902 150.595 50.2062C150.259 49.5102 150.091 48.7062 150.091 47.7942C150.091 46.8822 150.259 46.0842 150.595 45.4002C150.943 44.7042 151.429 44.1702 152.053 43.7982C152.689 43.4262 153.421 43.2402 154.249 43.2402C155.077 43.2402 155.809 43.4262 156.445 43.7982C157.081 44.1702 157.567 44.7042 157.903 45.4002C158.251 46.0842 158.425 46.8822 158.425 47.7942C158.425 48.7062 158.251 49.5102 157.903 50.2062C157.567 50.8902 157.081 51.4182 156.445 51.7902C155.809 52.1622 155.077 52.3482 154.249 52.3482ZM154.249 51.1422C155.113 51.1422 155.773 50.8602 156.229 50.2962C156.697 49.7202 156.931 48.8862 156.931 47.7942C156.931 46.7262 156.697 45.9042 156.229 45.3282C155.761 44.7402 155.101 44.4462 154.249 44.4462C153.397 44.4462 152.737 44.7402 152.269 45.3282C151.801 45.9042 151.567 46.7262 151.567 47.7942C151.567 48.8742 151.795 49.7022 152.251 50.2782C152.719 50.8542 153.385 51.1422 154.249 51.1422ZM167.239 43.2402C169.435 43.2402 170.533 44.3922 170.533 46.6962V51.5922C170.533 51.8082 170.467 51.9822 170.335 52.1142C170.215 52.2462 170.047 52.3122 169.831 52.3122C169.615 52.3122 169.441 52.2462 169.309 52.1142C169.177 51.9822 169.111 51.8082 169.111 51.5922V50.7282C168.883 51.2442 168.535 51.6462 168.067 51.9342C167.599 52.2102 167.059 52.3482 166.447 52.3482C165.883 52.3482 165.361 52.2342 164.881 52.0062C164.413 51.7782 164.041 51.4602 163.765 51.0522C163.489 50.6442 163.351 50.1942 163.351 49.7022C163.351 49.0422 163.519 48.5322 163.855 48.1722C164.191 47.8002 164.743 47.5362 165.511 47.3802C166.279 47.2122 167.347 47.1282 168.715 47.1282H169.111V46.5342C169.111 45.8142 168.961 45.2862 168.661 44.9502C168.373 44.6142 167.899 44.4462 167.239 44.4462C166.423 44.4462 165.595 44.6682 164.755 45.1122C164.431 45.3162 164.203 45.4182 164.071 45.4182C163.927 45.4182 163.807 45.3642 163.711 45.2562C163.615 45.1482 163.567 45.0102 163.567 44.8422C163.567 44.6742 163.615 44.5302 163.711 44.4102C163.819 44.2782 163.987 44.1462 164.215 44.0142C164.635 43.7742 165.109 43.5882 165.637 43.4562C166.177 43.3122 166.711 43.2402 167.239 43.2402ZM166.645 51.1962C167.365 51.1962 167.953 50.9562 168.409 50.4762C168.877 49.9842 169.111 49.3542 169.111 48.5862V48.0642H168.787C167.731 48.0642 166.927 48.1122 166.375 48.2082C165.823 48.2922 165.427 48.4422 165.187 48.6582C164.959 48.8622 164.845 49.1682 164.845 49.5762C164.845 50.0442 165.013 50.4342 165.349 50.7462C165.697 51.0462 166.129 51.1962 166.645 51.1962ZM167.563 42.2862C167.467 42.3582 167.371 42.3942 167.275 42.3942C167.155 42.3942 167.053 42.3582 166.969 42.2862C166.885 42.2022 166.843 42.1062 166.843 41.9982C166.843 41.9022 166.879 41.8122 166.951 41.7282L169.039 38.9922C169.255 38.7162 169.501 38.5782 169.777 38.5782C169.969 38.5782 170.131 38.6442 170.263 38.7762C170.395 38.8962 170.461 39.0522 170.461 39.2442C170.461 39.4962 170.341 39.7242 170.101 39.9282L167.563 42.2862ZM180.672 43.2402C182.772 43.2402 183.822 44.3982 183.822 46.7142V51.5922C183.822 51.8202 183.756 52.0002 183.624 52.1322C183.504 52.2522 183.33 52.3122 183.102 52.3122C182.874 52.3122 182.694 52.2522 182.562 52.1322C182.43 52.0002 182.364 51.8202 182.364 51.5922V46.8042C182.364 45.9882 182.202 45.3942 181.878 45.0222C181.566 44.6502 181.062 44.4642 180.366 44.4642C179.562 44.4642 178.92 44.7102 178.44 45.2022C177.96 45.6942 177.72 46.3602 177.72 47.2002V51.5922C177.72 51.8202 177.654 52.0002 177.522 52.1322C177.402 52.2522 177.228 52.3122 177 52.3122C176.772 52.3122 176.592 52.2522 176.46 52.1322C176.328 52.0002 176.262 51.8202 176.262 51.5922V43.9962C176.262 43.7802 176.328 43.6062 176.46 43.4742C176.592 43.3422 176.772 43.2762 177 43.2762C177.216 43.2762 177.384 43.3422 177.504 43.4742C177.636 43.6062 177.702 43.7742 177.702 43.9782V44.8962C177.99 44.3562 178.392 43.9482 178.908 43.6722C179.424 43.3842 180.012 43.2402 180.672 43.2402Z" fill="#E1E1E1"/>
<path d="M7.76709 10.9517H0.935059V7.26172H23.9126V10.9517H17.0806V31.2222H7.76709V10.9517ZM26.0073 19.2017C26.0073 17.3862 26.2974 15.7266 26.8774 14.2227C27.4575 12.708 28.3223 11.4082 29.4717 10.3232C30.6211 9.23828 32.0552 8.39502 33.7739 7.79346C35.4927 7.19189 37.4907 6.89111 39.7681 6.89111C42.0454 6.89111 44.0435 7.19189 45.7622 7.79346C47.481 8.39502 48.915 9.23828 50.0645 10.3232C51.2139 11.4082 52.0786 12.708 52.6587 14.2227C53.2388 15.7266 53.5288 17.3862 53.5288 19.2017C53.5288 21.0386 53.2388 22.7197 52.6587 24.2451C52.0786 25.7705 51.2139 27.0757 50.0645 28.1606C48.915 29.2456 47.481 30.0889 45.7622 30.6904C44.0435 31.292 42.0454 31.5928 39.7681 31.5928C37.4907 31.5928 35.4927 31.292 33.7739 30.6904C32.0552 30.0889 30.6211 29.2456 29.4717 28.1606C28.3223 27.0757 27.4575 25.7705 26.8774 24.2451C26.2974 22.7197 26.0073 21.0386 26.0073 19.2017ZM39.7681 28.2573C40.4126 28.2573 40.9819 28.1445 41.4761 27.9189C41.9702 27.6934 42.3838 27.2529 42.7168 26.5977C43.0498 25.9424 43.3022 25.0239 43.4741 23.8423C43.646 22.6606 43.7319 21.1138 43.7319 19.2017C43.7319 17.311 43.646 15.7803 43.4741 14.6094C43.3022 13.4385 43.0498 12.5308 42.7168 11.8862C42.3838 11.2417 41.9702 10.8066 41.4761 10.5811C40.9819 10.3555 40.4126 10.2427 39.7681 10.2427C39.1235 10.2427 38.5488 10.3555 38.0439 10.5811C37.5498 10.8066 37.1362 11.2417 36.8032 11.8862C36.4702 12.5308 36.2178 13.4385 36.0459 14.6094C35.874 15.7803 35.7881 17.311 35.7881 19.2017C35.7881 21.1138 35.874 22.6606 36.0459 23.8423C36.2178 25.0239 36.4702 25.9424 36.8032 26.5977C37.1362 27.2529 37.5498 27.6934 38.0439 27.9189C38.5488 28.1445 39.1235 28.2573 39.7681 28.2573ZM64.8726 13.3203L62.1011 7.27783H71.9141L83.6445 31.2383H73.1226L71.3501 27.4033H61.9077L60.1514 31.2383H56.0747L64.8726 13.3203ZM69.6582 23.7134L66.6289 17.1392L63.6157 23.7134H69.6582ZM86.9316 7.27783H92.7646L107.959 20.0396L107.976 7.27783H111.521V31.2222H105.688L90.4766 18.5088V31.2222H86.9316V7.27783Z" fill="#3290E7"/>
<path d="M121.849 10.9517H115.017V7.26172H137.995V10.9517H131.163V31.2222H121.849V10.9517ZM148.114 13.3203L145.342 7.27783H155.155L166.886 31.2383H156.364L154.591 27.4033H145.149L143.393 31.2383H139.316L148.114 13.3203ZM152.899 23.7134L149.87 17.1392L146.857 23.7134H152.899ZM170.173 7.27783H176.763L185.819 19.814L194.423 7.27783H200.836V31.2222H191.539V18.9922L182.612 31.5283L173.718 18.9922V31.2222H170.173V7.27783Z" fill="#29CB75"/>
</svg>
