<svg width="19" height="18" viewBox="0 0 19 18" fill="none" xmlns="http://www.w3.org/2000/svg">
<g clip-path="url(#clip0)">
<path d="M0.82744 6.12206C0.82744 6.12206 1.26652 7.89946 2.89111 9.89629C4.16443 11.4762 6.53545 14.1313 8.90647 15.821C10.8384 17.2034 12.3752 17.6642 12.3752 17.6642C13.7802 18.2566 14.7243 17.8836 14.7243 17.8836C15.4048 17.6861 16.0195 17.2253 16.5684 16.7865C17.1831 16.2818 17.7758 15.7332 18.2808 15.1407C18.4564 14.9213 18.5442 14.7238 18.4784 14.4385C18.2369 13.89 16.5245 12.332 16.0634 11.959C15.7341 11.6956 15.4268 11.4104 15.0755 11.1909C14.9218 11.1032 14.7682 11.0154 14.6145 10.9715C14.2632 10.9057 14.0217 11.2348 13.8022 11.4543C13.3851 11.8712 12.6606 12.9025 12.1996 13.0342C11.7385 13.1878 10.4432 12.332 10.0261 11.9809C8.64303 10.8398 7.17212 9.41354 6.5135 8.46998C6.20614 8.03112 5.30603 6.75842 5.45971 6.29761C5.59143 5.85875 6.62327 5.11268 7.04039 4.69576C7.25993 4.47632 7.58924 4.25689 7.52338 3.88386C7.50142 3.70831 7.41361 3.55471 7.30384 3.42305C7.0843 3.07196 6.7989 2.74281 6.53545 2.43561C6.16224 1.9748 4.60351 0.263232 4.05466 0.0218565C3.79122 -0.0439731 3.57168 0.0437996 3.35214 0.219345C2.73743 0.724039 2.18858 1.3165 1.7056 1.93091C1.26652 2.47949 0.805486 3.0939 0.607901 3.77414C0.607901 3.79609 0.256638 4.73964 0.82744 6.12206Z" fill="white"/>
</g>
<defs>
<clipPath id="clip0">
<rect width="18" height="18" fill="white" transform="translate(0.5)"/>
</clipPath>
</defs>
</svg>
