<svg width="21" height="20" viewBox="0 0 21 20" fill="none" xmlns="http://www.w3.org/2000/svg">
<path d="M20.125 10.2222C20.125 4.87061 15.7891 0.534668 10.4375 0.534668C5.08594 0.534668 0.75 4.87061 0.75 10.2222C0.75 14.3628 3.28906 17.8394 6.88281 19.2456C6.80469 18.5034 6.72656 17.3315 6.92188 16.4722C7.11719 15.73 8.05469 11.6675 8.05469 11.6675C8.05469 11.6675 7.78125 11.0815 7.78125 10.2222C7.78125 8.89404 8.5625 7.87842 9.53906 7.87842C10.3594 7.87842 10.75 8.50342 10.75 9.24561C10.75 10.0659 10.2031 11.3159 9.92969 12.4878C9.73438 13.4253 10.4375 14.2065 11.375 14.2065C13.0938 14.2065 14.4219 12.4097 14.4219 9.79248C14.4219 7.44873 12.7422 5.84717 10.3984 5.84717C7.625 5.84717 6.02344 7.91748 6.02344 10.0269C6.02344 10.8862 6.33594 11.7847 6.72656 12.2534C6.80469 12.3315 6.80469 12.4487 6.80469 12.5269C6.72656 12.8394 6.53125 13.5034 6.53125 13.6206C6.49219 13.8159 6.375 13.855 6.17969 13.7769C4.96875 13.1909 4.22656 11.4331 4.22656 9.98779C4.22656 6.94092 6.45312 4.12842 10.6328 4.12842C13.9922 4.12842 16.6094 6.55029 16.6094 9.75342C16.6094 13.0737 14.5 15.769 11.5703 15.769C10.5938 15.769 9.65625 15.2612 9.34375 14.6362C9.34375 14.6362 8.875 16.5112 8.75781 16.9409C8.52344 17.8003 7.9375 18.855 7.54688 19.48C8.44531 19.7925 9.42188 19.9097 10.4375 19.9097C15.7891 19.9097 20.125 15.5737 20.125 10.2222Z" fill="white"/>
</svg>
