<svg width="15" height="12" viewBox="0 0 15 12" fill="none" xmlns="http://www.w3.org/2000/svg">
<path d="M11.4133 6C10.6799 6.06666 10.0799 6.35 9.61328 6.85C9.14661 7.35 8.91328 7.98333 8.91328 8.75C8.91328 9.58333 9.16328 10.2667 9.66328 10.8C10.1633 11.3 10.7966 11.55 11.5633 11.55C12.4299 11.55 13.1299 11.2333 13.6633 10.6C14.1633 9.96667 14.4133 8.98333 14.4133 7.65C14.4133 5.08333 13.5633 2.86666 11.8633 0.999998C11.5299 0.666665 11.1466 0.499998 10.7133 0.499998C10.3466 0.499998 10.0299 0.633332 9.76328 0.899999C9.49661 1.13333 9.36328 1.41666 9.36328 1.75C9.36328 2.11666 9.49661 2.43333 9.76328 2.7C10.6299 3.6 11.1799 4.7 11.4133 6ZM3.11328 6C2.37995 6.06666 1.77995 6.35 1.31328 6.85C0.846614 7.35 0.613281 7.98333 0.613281 8.75C0.613281 9.58333 0.863281 10.2667 1.36328 10.8C1.86328 11.3 2.49661 11.55 3.26328 11.55C4.12995 11.55 4.82995 11.2333 5.36328 10.6C5.86328 9.96667 6.11328 8.98333 6.11328 7.65C6.11328 5.08333 5.26328 2.86666 3.56328 0.999998C3.22995 0.666665 2.84661 0.499998 2.41328 0.499998C2.04661 0.499998 1.72995 0.633332 1.46328 0.899999C1.19661 1.13333 1.06328 1.41666 1.06328 1.75C1.06328 2.11666 1.19661 2.43333 1.46328 2.7C2.32995 3.6 2.87995 4.7 3.11328 6Z" fill="#B6B6B6"/>
</svg>
