<svg width="15" height="12" viewBox="0 0 15 12" fill="none" xmlns="http://www.w3.org/2000/svg">
<path d="M3.58672 6C4.32005 6.06666 4.92005 6.35 5.38672 6.85C5.85339 7.35 6.08672 7.98333 6.08672 8.75C6.08672 9.58333 5.83672 10.2667 5.33672 10.8C4.83672 11.3 4.20339 11.55 3.43672 11.55C2.57005 11.55 1.87005 11.2333 1.33672 10.6C0.836719 9.96667 0.586719 8.98333 0.586719 7.65C0.586719 5.08333 1.43672 2.86666 3.13672 0.999998C3.47005 0.666665 3.85339 0.499998 4.28672 0.499998C4.65339 0.499998 4.97005 0.633332 5.23672 0.899999C5.50339 1.13333 5.63672 1.41666 5.63672 1.75C5.63672 2.11666 5.50339 2.43333 5.23672 2.7C4.37005 3.6 3.82005 4.7 3.58672 6ZM11.8867 6C12.6201 6.06666 13.2201 6.35 13.6867 6.85C14.1534 7.35 14.3867 7.98333 14.3867 8.75C14.3867 9.58333 14.1367 10.2667 13.6367 10.8C13.1367 11.3 12.5034 11.55 11.7367 11.55C10.8701 11.55 10.1701 11.2333 9.63672 10.6C9.13672 9.96667 8.88672 8.98333 8.88672 7.65C8.88672 5.08333 9.73672 2.86666 11.4367 0.999998C11.7701 0.666665 12.1534 0.499998 12.5867 0.499998C12.9534 0.499998 13.2701 0.633332 13.5367 0.899999C13.8034 1.13333 13.9367 1.41666 13.9367 1.75C13.9367 2.11666 13.8034 2.43333 13.5367 2.7C12.6701 3.6 12.1201 4.7 11.8867 6Z" fill="#B6B6B6"/>
</svg>
