<svg width="18" height="19" viewBox="0 0 18 19" fill="none" xmlns="http://www.w3.org/2000/svg">
<path d="M16.75 0.527832H1.71094C1.04688 0.527832 0.5 1.11377 0.5 1.81689V16.7778C0.5 17.481 1.04688 18.0278 1.71094 18.0278H16.75C17.4141 18.0278 18 17.481 18 16.7778V1.81689C18 1.11377 17.4141 0.527832 16.75 0.527832ZM5.77344 15.5278H3.19531V7.20752H5.77344V15.5278ZM4.48438 6.03564C3.625 6.03564 2.96094 5.37158 2.96094 4.55127C2.96094 3.73096 3.625 3.02783 4.48438 3.02783C5.30469 3.02783 5.96875 3.73096 5.96875 4.55127C5.96875 5.37158 5.30469 6.03564 4.48438 6.03564ZM15.5 15.5278H12.8828V11.4653C12.8828 10.5278 12.8828 9.27783 11.5547 9.27783C10.1875 9.27783 9.99219 10.3325 9.99219 11.4263V15.5278H7.41406V7.20752H9.875V8.34033H9.91406C10.2656 7.67627 11.125 6.97314 12.375 6.97314C14.9922 6.97314 15.5 8.73096 15.5 10.9575V15.5278Z" fill="#444444"/>
</svg>
