<svg width="20" height="20" viewBox="0 0 20 20" fill="none" xmlns="http://www.w3.org/2000/svg">
<path d="M19.625 10.2778C19.625 4.92627 15.2891 0.590332 9.9375 0.590332C4.58594 0.590332 0.25 4.92627 0.25 10.2778C0.25 14.4185 2.78906 17.895 6.38281 19.3013C6.30469 18.5591 6.22656 17.3872 6.42188 16.5278C6.61719 15.7856 7.55469 11.7231 7.55469 11.7231C7.55469 11.7231 7.28125 11.1372 7.28125 10.2778C7.28125 8.94971 8.0625 7.93408 9.03906 7.93408C9.85938 7.93408 10.25 8.55908 10.25 9.30127C10.25 10.1216 9.70312 11.3716 9.42969 12.5435C9.23438 13.481 9.9375 14.2622 10.875 14.2622C12.5938 14.2622 13.9219 12.4653 13.9219 9.84814C13.9219 7.50439 12.2422 5.90283 9.89844 5.90283C7.125 5.90283 5.52344 7.97314 5.52344 10.0825C5.52344 10.9419 5.83594 11.8403 6.22656 12.3091C6.30469 12.3872 6.30469 12.5044 6.30469 12.5825C6.22656 12.895 6.03125 13.5591 6.03125 13.6763C5.99219 13.8716 5.875 13.9106 5.67969 13.8325C4.46875 13.2466 3.72656 11.4888 3.72656 10.0435C3.72656 6.99658 5.95312 4.18408 10.1328 4.18408C13.4922 4.18408 16.1094 6.60596 16.1094 9.80908C16.1094 13.1294 14 15.8247 11.0703 15.8247C10.0938 15.8247 9.15625 15.3169 8.84375 14.6919C8.84375 14.6919 8.375 16.5669 8.25781 16.9966C8.02344 17.856 7.4375 18.9106 7.04688 19.5356C7.94531 19.8481 8.92188 19.9653 9.9375 19.9653C15.2891 19.9653 19.625 15.6294 19.625 10.2778Z" fill="#444444"/>
</svg>
