<svg width="186" height="54" viewBox="0 0 186 54" fill="none" xmlns="http://www.w3.org/2000/svg">
<path d="M11.822 47C11.594 47 11.408 46.934 11.264 46.802C11.132 46.67 11.066 46.496 11.066 46.28V35.03C11.066 34.814 11.132 34.64 11.264 34.508C11.408 34.376 11.594 34.31 11.822 34.31H15.332C17.36 34.31 18.926 34.862 20.03 35.966C21.146 37.058 21.704 38.618 21.704 40.646C21.704 42.674 21.146 44.24 20.03 45.344C18.914 46.448 17.348 47 15.332 47H11.822ZM15.242 45.74C18.53 45.74 20.174 44.042 20.174 40.646C20.174 37.262 18.53 35.57 15.242 35.57H12.542V45.74H15.242ZM27.9546 47.09C27.7386 47.09 27.5586 47.03 27.4146 46.91C27.2826 46.778 27.2166 46.598 27.2166 46.37V38.774C27.2166 38.546 27.2826 38.372 27.4146 38.252C27.5586 38.12 27.7386 38.054 27.9546 38.054C28.1706 38.054 28.3446 38.12 28.4766 38.252C28.6086 38.372 28.6746 38.546 28.6746 38.774V46.37C28.6746 46.61 28.6086 46.79 28.4766 46.91C28.3446 47.03 28.1706 47.09 27.9546 47.09ZM27.9546 36.164C27.6666 36.164 27.4326 36.08 27.2526 35.912C27.0726 35.744 26.9826 35.522 26.9826 35.246C26.9826 34.982 27.0726 34.766 27.2526 34.598C27.4326 34.43 27.6666 34.346 27.9546 34.346C28.2426 34.346 28.4766 34.43 28.6566 34.598C28.8366 34.766 28.9266 34.982 28.9266 35.246C28.9266 35.522 28.8366 35.744 28.6566 35.912C28.4766 36.08 28.2426 36.164 27.9546 36.164ZM27.9366 50.366C27.6606 50.366 27.4386 50.282 27.2706 50.114C27.1026 49.958 27.0186 49.748 27.0186 49.484C27.0186 49.22 27.1026 49.004 27.2706 48.836C27.4386 48.68 27.6606 48.602 27.9366 48.602C28.2006 48.602 28.4166 48.68 28.5846 48.836C28.7646 49.004 28.8546 49.22 28.8546 49.484C28.8546 49.748 28.7706 49.958 28.6026 50.114C28.4346 50.282 28.2126 50.366 27.9366 50.366ZM38.0782 47.126C37.2622 47.126 36.5362 46.94 35.9002 46.568C35.2762 46.196 34.7902 45.668 34.4422 44.984C34.1062 44.3 33.9382 43.508 33.9382 42.608C33.9382 41.708 34.1122 40.91 34.4602 40.214C34.8202 39.518 35.3182 38.978 35.9542 38.594C36.5902 38.21 37.3222 38.018 38.1502 38.018C38.6062 38.018 39.0562 38.084 39.5002 38.216C39.9562 38.336 40.3522 38.516 40.6882 38.756C40.9042 38.9 41.0542 39.044 41.1382 39.188C41.2342 39.32 41.2822 39.47 41.2822 39.638C41.2822 39.806 41.2342 39.944 41.1382 40.052C41.0542 40.16 40.9402 40.214 40.7962 40.214C40.7122 40.214 40.6222 40.19 40.5262 40.142C40.4302 40.094 40.3462 40.046 40.2742 39.998C40.2142 39.95 40.1722 39.92 40.1482 39.908C39.8362 39.704 39.5362 39.542 39.2482 39.422C38.9722 39.302 38.6302 39.242 38.2222 39.242C37.3462 39.242 36.6622 39.542 36.1702 40.142C35.6902 40.73 35.4502 41.552 35.4502 42.608C35.4502 43.664 35.6902 44.48 36.1702 45.056C36.6622 45.632 37.3462 45.92 38.2222 45.92C38.6302 45.92 38.9782 45.86 39.2662 45.74C39.5662 45.62 39.8662 45.458 40.1662 45.254C40.2982 45.17 40.4242 45.098 40.5442 45.038C40.6642 44.978 40.7662 44.948 40.8502 44.948C40.9822 44.948 41.0902 45.002 41.1742 45.11C41.2702 45.218 41.3182 45.356 41.3182 45.524C41.3182 45.68 41.2762 45.824 41.1922 45.956C41.1082 46.076 40.9522 46.214 40.7242 46.37C40.3882 46.598 39.9802 46.784 39.5002 46.928C39.0322 47.06 38.5582 47.126 38.0782 47.126ZM50.5615 38.018C51.5935 38.018 52.3735 38.312 52.9015 38.9C53.4295 39.476 53.6935 40.34 53.6935 41.492V46.37C53.6935 46.598 53.6275 46.778 53.4955 46.91C53.3635 47.03 53.1895 47.09 52.9735 47.09C52.7455 47.09 52.5655 47.03 52.4335 46.91C52.3015 46.778 52.2355 46.598 52.2355 46.37V41.528C52.2355 40.748 52.0735 40.172 51.7495 39.8C51.4375 39.428 50.9335 39.242 50.2375 39.242C49.4335 39.242 48.7915 39.488 48.3115 39.98C47.8315 40.472 47.5915 41.138 47.5915 41.978V46.37C47.5915 46.598 47.5255 46.778 47.3935 46.91C47.2735 47.03 47.0995 47.09 46.8715 47.09C46.6435 47.09 46.4635 47.03 46.3315 46.91C46.1995 46.778 46.1335 46.598 46.1335 46.37V34.922C46.1335 34.718 46.1995 34.55 46.3315 34.418C46.4755 34.286 46.6555 34.22 46.8715 34.22C47.0995 34.22 47.2735 34.286 47.3935 34.418C47.5255 34.538 47.5915 34.706 47.5915 34.922V39.638C47.8795 39.11 48.2815 38.708 48.7975 38.432C49.3135 38.156 49.9015 38.018 50.5615 38.018ZM73.4426 38.504C73.5746 38.216 73.7846 38.072 74.0726 38.072C74.2526 38.072 74.4146 38.132 74.5586 38.252C74.7026 38.372 74.7746 38.522 74.7746 38.702C74.7746 38.81 74.7506 38.906 74.7026 38.99L71.1926 46.55C71.1206 46.706 71.0126 46.832 70.8686 46.928C70.7246 47.012 70.5686 47.054 70.4006 47.054C70.2446 47.054 70.0946 47.012 69.9506 46.928C69.8066 46.832 69.6926 46.706 69.6086 46.55L66.1166 38.99C66.0686 38.906 66.0446 38.816 66.0446 38.72C66.0446 38.54 66.1226 38.384 66.2786 38.252C66.4466 38.12 66.6266 38.054 66.8186 38.054C66.9386 38.054 67.0526 38.09 67.1606 38.162C67.2806 38.234 67.3706 38.336 67.4306 38.468L70.4366 45.218L73.4426 38.504ZM86.0907 38.054C86.3187 38.054 86.4927 38.12 86.6127 38.252C86.7447 38.384 86.8107 38.558 86.8107 38.774V46.388C86.8107 46.592 86.7447 46.76 86.6127 46.892C86.4927 47.024 86.3187 47.09 86.0907 47.09C85.8747 47.09 85.7007 47.03 85.5687 46.91C85.4487 46.778 85.3887 46.61 85.3887 46.406V45.506C85.1127 46.034 84.7227 46.436 84.2187 46.712C83.7267 46.988 83.1687 47.126 82.5447 47.126C81.5007 47.126 80.7147 46.838 80.1867 46.262C79.6587 45.674 79.3947 44.81 79.3947 43.67V38.774C79.3947 38.558 79.4607 38.384 79.5927 38.252C79.7247 38.12 79.9047 38.054 80.1327 38.054C80.3607 38.054 80.5347 38.12 80.6547 38.252C80.7867 38.384 80.8527 38.558 80.8527 38.774V43.634C80.8527 44.414 81.0087 44.99 81.3207 45.362C81.6327 45.722 82.1247 45.902 82.7967 45.902C83.5647 45.902 84.1827 45.656 84.6507 45.164C85.1187 44.66 85.3527 44 85.3527 43.184V38.774C85.3527 38.558 85.4187 38.384 85.5507 38.252C85.6827 38.12 85.8627 38.054 86.0907 38.054ZM83.1207 50.366C82.8447 50.366 82.6227 50.282 82.4547 50.114C82.2867 49.958 82.2027 49.748 82.2027 49.484C82.2027 49.22 82.2867 49.004 82.4547 48.836C82.6227 48.68 82.8447 48.602 83.1207 48.602C83.3847 48.602 83.6007 48.68 83.7687 48.836C83.9487 49.004 84.0387 49.22 84.0387 49.484C84.0387 49.748 83.9547 49.958 83.7867 50.114C83.6187 50.282 83.3967 50.366 83.1207 50.366ZM107.283 45.848C107.475 46.028 107.571 46.22 107.571 46.424C107.571 46.604 107.505 46.76 107.373 46.892C107.253 47.024 107.103 47.09 106.923 47.09C106.767 47.09 106.605 47.018 106.437 46.874L101.739 42.824V46.37C101.739 46.598 101.667 46.778 101.523 46.91C101.391 47.03 101.223 47.09 101.019 47.09C100.803 47.09 100.623 47.03 100.479 46.91C100.347 46.778 100.281 46.598 100.281 46.37V34.94C100.281 34.712 100.347 34.538 100.479 34.418C100.623 34.286 100.803 34.22 101.019 34.22C101.223 34.22 101.391 34.286 101.523 34.418C101.667 34.538 101.739 34.712 101.739 34.94V42.248L106.041 38.306C106.185 38.162 106.347 38.09 106.527 38.09C106.707 38.09 106.863 38.156 106.995 38.288C107.127 38.42 107.193 38.576 107.193 38.756C107.193 38.96 107.109 39.14 106.941 39.296L103.395 42.464L107.283 45.848ZM118.969 44.966C119.101 44.966 119.215 45.02 119.311 45.128C119.407 45.236 119.455 45.374 119.455 45.542C119.455 45.842 119.245 46.118 118.825 46.37C118.393 46.622 117.937 46.814 117.457 46.946C116.977 47.066 116.509 47.126 116.053 47.126C114.697 47.126 113.623 46.724 112.831 45.92C112.051 45.116 111.661 44.006 111.661 42.59C111.661 41.69 111.835 40.898 112.183 40.214C112.531 39.518 113.017 38.978 113.641 38.594C114.277 38.21 114.997 38.018 115.801 38.018C116.941 38.018 117.847 38.39 118.519 39.134C119.191 39.878 119.527 40.886 119.527 42.158C119.527 42.398 119.479 42.572 119.383 42.68C119.287 42.788 119.131 42.842 118.915 42.842H113.119C113.227 44.906 114.205 45.938 116.053 45.938C116.521 45.938 116.923 45.878 117.259 45.758C117.595 45.626 117.955 45.452 118.339 45.236C118.651 45.056 118.861 44.966 118.969 44.966ZM115.819 39.152C115.051 39.152 114.433 39.392 113.965 39.872C113.509 40.352 113.239 41.03 113.155 41.906H118.249C118.225 41.018 118.003 40.34 117.583 39.872C117.163 39.392 116.575 39.152 115.819 39.152ZM118.069 35.228C118.009 35.276 117.931 35.3 117.835 35.3C117.727 35.3 117.631 35.264 117.547 35.192C117.475 35.108 117.439 35.012 117.439 34.904C117.439 34.808 117.469 34.724 117.529 34.652L118.897 32.906C119.077 32.678 119.275 32.564 119.491 32.564C119.671 32.564 119.821 32.63 119.941 32.762C120.073 32.882 120.139 33.026 120.139 33.194C120.139 33.446 120.013 33.662 119.761 33.842L118.069 35.228ZM114.253 36.992C114.133 37.1 114.007 37.154 113.875 37.154C113.731 37.154 113.605 37.106 113.497 37.01C113.389 36.902 113.335 36.776 113.335 36.632C113.335 36.476 113.413 36.326 113.569 36.182L115.135 34.616C115.339 34.424 115.561 34.328 115.801 34.328C116.017 34.328 116.239 34.424 116.467 34.616L118.033 36.182C118.189 36.326 118.267 36.476 118.267 36.632C118.267 36.776 118.213 36.902 118.105 37.01C117.997 37.106 117.877 37.154 117.745 37.154C117.601 37.154 117.475 37.1 117.367 36.992L115.801 35.336L114.253 36.992ZM136.486 45.938C136.906 45.974 137.116 46.166 137.116 46.514C137.116 46.718 137.038 46.874 136.882 46.982C136.738 47.078 136.516 47.114 136.216 47.09L135.73 47.054C134.77 46.982 134.062 46.694 133.606 46.19C133.15 45.686 132.922 44.924 132.922 43.904V39.386H131.716C131.512 39.386 131.35 39.338 131.23 39.242C131.122 39.134 131.068 38.996 131.068 38.828C131.068 38.648 131.122 38.504 131.23 38.396C131.35 38.288 131.512 38.234 131.716 38.234H132.922V36.2C132.922 35.972 132.988 35.798 133.12 35.678C133.252 35.546 133.432 35.48 133.66 35.48C133.876 35.48 134.05 35.546 134.182 35.678C134.314 35.798 134.38 35.972 134.38 36.2V38.234H136.378C136.57 38.234 136.72 38.288 136.828 38.396C136.948 38.504 137.008 38.648 137.008 38.828C137.008 38.996 136.948 39.134 136.828 39.242C136.72 39.338 136.57 39.386 136.378 39.386H134.38V43.976C134.38 44.636 134.512 45.116 134.776 45.416C135.052 45.704 135.46 45.866 136 45.902L136.486 45.938ZM145.249 47.126C144.421 47.126 143.689 46.94 143.053 46.568C142.429 46.196 141.943 45.668 141.595 44.984C141.259 44.288 141.091 43.484 141.091 42.572C141.091 41.66 141.259 40.862 141.595 40.178C141.943 39.482 142.429 38.948 143.053 38.576C143.689 38.204 144.421 38.018 145.249 38.018C146.077 38.018 146.809 38.204 147.445 38.576C148.081 38.948 148.567 39.482 148.903 40.178C149.251 40.862 149.425 41.66 149.425 42.572C149.425 43.484 149.251 44.288 148.903 44.984C148.567 45.668 148.081 46.196 147.445 46.568C146.809 46.94 146.077 47.126 145.249 47.126ZM145.249 45.92C146.113 45.92 146.773 45.638 147.229 45.074C147.697 44.498 147.931 43.664 147.931 42.572C147.931 41.504 147.697 40.682 147.229 40.106C146.761 39.518 146.101 39.224 145.249 39.224C144.397 39.224 143.737 39.518 143.269 40.106C142.801 40.682 142.567 41.504 142.567 42.572C142.567 43.652 142.795 44.48 143.251 45.056C143.719 45.632 144.385 45.92 145.249 45.92ZM158.239 38.018C160.435 38.018 161.533 39.17 161.533 41.474V46.37C161.533 46.586 161.467 46.76 161.335 46.892C161.215 47.024 161.047 47.09 160.831 47.09C160.615 47.09 160.441 47.024 160.309 46.892C160.177 46.76 160.111 46.586 160.111 46.37V45.506C159.883 46.022 159.535 46.424 159.067 46.712C158.599 46.988 158.059 47.126 157.447 47.126C156.883 47.126 156.361 47.012 155.881 46.784C155.413 46.556 155.041 46.238 154.765 45.83C154.489 45.422 154.351 44.972 154.351 44.48C154.351 43.82 154.519 43.31 154.855 42.95C155.191 42.578 155.743 42.314 156.511 42.158C157.279 41.99 158.347 41.906 159.715 41.906H160.111V41.312C160.111 40.592 159.961 40.064 159.661 39.728C159.373 39.392 158.899 39.224 158.239 39.224C157.423 39.224 156.595 39.446 155.755 39.89C155.431 40.094 155.203 40.196 155.071 40.196C154.927 40.196 154.807 40.142 154.711 40.034C154.615 39.926 154.567 39.788 154.567 39.62C154.567 39.452 154.615 39.308 154.711 39.188C154.819 39.056 154.987 38.924 155.215 38.792C155.635 38.552 156.109 38.366 156.637 38.234C157.177 38.09 157.711 38.018 158.239 38.018ZM157.645 45.974C158.365 45.974 158.953 45.734 159.409 45.254C159.877 44.762 160.111 44.132 160.111 43.364V42.842H159.787C158.731 42.842 157.927 42.89 157.375 42.986C156.823 43.07 156.427 43.22 156.187 43.436C155.959 43.64 155.845 43.946 155.845 44.354C155.845 44.822 156.013 45.212 156.349 45.524C156.697 45.824 157.129 45.974 157.645 45.974ZM158.563 37.064C158.467 37.136 158.371 37.172 158.275 37.172C158.155 37.172 158.053 37.136 157.969 37.064C157.885 36.98 157.843 36.884 157.843 36.776C157.843 36.68 157.879 36.59 157.951 36.506L160.039 33.77C160.255 33.494 160.501 33.356 160.777 33.356C160.969 33.356 161.131 33.422 161.263 33.554C161.395 33.674 161.461 33.83 161.461 34.022C161.461 34.274 161.341 34.502 161.101 34.706L158.563 37.064ZM171.672 38.018C173.772 38.018 174.822 39.176 174.822 41.492V46.37C174.822 46.598 174.756 46.778 174.624 46.91C174.504 47.03 174.33 47.09 174.102 47.09C173.874 47.09 173.694 47.03 173.562 46.91C173.43 46.778 173.364 46.598 173.364 46.37V41.582C173.364 40.766 173.202 40.172 172.878 39.8C172.566 39.428 172.062 39.242 171.366 39.242C170.562 39.242 169.92 39.488 169.44 39.98C168.96 40.472 168.72 41.138 168.72 41.978V46.37C168.72 46.598 168.654 46.778 168.522 46.91C168.402 47.03 168.228 47.09 168 47.09C167.772 47.09 167.592 47.03 167.46 46.91C167.328 46.778 167.262 46.598 167.262 46.37V38.774C167.262 38.558 167.328 38.384 167.46 38.252C167.592 38.12 167.772 38.054 168 38.054C168.216 38.054 168.384 38.12 168.504 38.252C168.636 38.384 168.702 38.552 168.702 38.756V39.674C168.99 39.134 169.392 38.726 169.908 38.45C170.424 38.162 171.012 38.018 171.672 38.018Z" fill="#767676"/>
<path d="M7.10645 9.57227H0.895508V6.21777H21.7842V9.57227H15.5732V28H7.10645V9.57227ZM23.6885 17.0723C23.6885 15.4219 23.9521 13.9131 24.4795 12.5459C25.0068 11.1689 25.793 9.9873 26.8379 9.00098C27.8828 8.01465 29.1865 7.24805 30.749 6.70117C32.3115 6.1543 34.1279 5.88086 36.1982 5.88086C38.2686 5.88086 40.085 6.1543 41.6475 6.70117C43.21 7.24805 44.5137 8.01465 45.5586 9.00098C46.6035 9.9873 47.3896 11.1689 47.917 12.5459C48.4443 13.9131 48.708 15.4219 48.708 17.0723C48.708 18.7422 48.4443 20.2705 47.917 21.6572C47.3896 23.0439 46.6035 24.2305 45.5586 25.2168C44.5137 26.2031 43.21 26.9697 41.6475 27.5166C40.085 28.0635 38.2686 28.3369 36.1982 28.3369C34.1279 28.3369 32.3115 28.0635 30.749 27.5166C29.1865 26.9697 27.8828 26.2031 26.8379 25.2168C25.793 24.2305 25.0068 23.0439 24.4795 21.6572C23.9521 20.2705 23.6885 18.7422 23.6885 17.0723ZM36.1982 25.3047C36.7842 25.3047 37.3018 25.2021 37.751 24.9971C38.2002 24.792 38.5762 24.3916 38.8789 23.7959C39.1816 23.2002 39.4111 22.3652 39.5674 21.291C39.7236 20.2168 39.8018 18.8105 39.8018 17.0723C39.8018 15.3535 39.7236 13.9619 39.5674 12.8975C39.4111 11.833 39.1816 11.0078 38.8789 10.4219C38.5762 9.83594 38.2002 9.44043 37.751 9.23535C37.3018 9.03027 36.7842 8.92773 36.1982 8.92773C35.6123 8.92773 35.0898 9.03027 34.6309 9.23535C34.1816 9.44043 33.8057 9.83594 33.5029 10.4219C33.2002 11.0078 32.9707 11.833 32.8145 12.8975C32.6582 13.9619 32.5801 15.3535 32.5801 17.0723C32.5801 18.8105 32.6582 20.2168 32.8145 21.291C32.9707 22.3652 33.2002 23.2002 33.5029 23.7959C33.8057 24.3916 34.1816 24.792 34.6309 24.9971C35.0898 25.2021 35.6123 25.3047 36.1982 25.3047ZM59.0205 11.7256L56.501 6.23242H65.4219L76.0859 28.0146H66.5205L64.9092 24.5283H56.3252L54.7285 28.0146H51.0225L59.0205 11.7256ZM63.3711 21.1738L60.6172 15.1973L57.8779 21.1738H63.3711ZM79.0742 6.23242H84.377L98.1904 17.834L98.2051 6.23242H101.428V28H96.125L82.2969 16.4424V28H79.0742V6.23242Z" fill="#3290E7"/>
<path d="M110.817 9.57227H104.606V6.21777H125.495V9.57227H119.284V28H110.817V9.57227ZM134.694 11.7256L132.175 6.23242H141.096L151.76 28.0146H142.194L140.583 24.5283H131.999L130.402 28.0146H126.696L134.694 11.7256ZM139.045 21.1738L136.291 15.1973L133.552 21.1738H139.045ZM154.748 6.23242H160.739L168.972 17.6289L176.794 6.23242H182.624V28H174.172V16.8818L166.057 28.2783L157.971 16.8818V28H154.748V6.23242Z" fill="#29CB75"/>
</svg>
